<svg width="257" height="257" viewBox="0 0 257 257" fill="none" xmlns="http://www.w3.org/2000/svg">
<rect x="0.723785" y="0.847656" width="256" height="256" fill="#FFFF44"/>
<path d="M65.0411 83.5721C68.9879 83.5721 72.121 84.8945 74.4403 87.5393C76.7596 90.1434 77.9192 93.6833 77.9192 98.1591V118.117H65.9566V99.746C65.9566 97.7929 65.448 96.2671 64.4307 95.1685C63.4135 94.0292 62.0504 93.4595 60.3415 93.4595C58.5512 93.4595 57.1474 94.0292 56.1301 95.1685C55.1129 96.2671 54.6043 97.7929 54.6043 99.746V118.117H42.6417V83.8772H54.6043V88.7599C55.6622 87.2137 57.0863 85.9727 58.8767 85.0369C60.667 84.0603 62.7218 83.5721 65.0411 83.5721ZM100.413 118.544C96.9951 118.544 93.9231 117.832 91.1969 116.408C88.5114 114.984 86.3956 112.95 84.8494 110.305C83.3032 107.66 82.5301 104.547 82.5301 100.967C82.5301 97.4267 83.3032 94.3343 84.8494 91.6896C86.4363 89.0448 88.5725 87.0103 91.258 85.5862C93.9841 84.162 97.0562 83.45 100.474 83.45C103.892 83.45 106.944 84.162 109.629 85.5862C112.355 87.0103 114.491 89.0448 116.038 91.6896C117.625 94.3343 118.418 97.4267 118.418 100.967C118.418 104.507 117.625 107.619 116.038 110.305C114.491 112.95 112.355 114.984 109.629 116.408C106.903 117.832 103.831 118.544 100.413 118.544ZM100.413 108.169C102.081 108.169 103.465 107.558 104.563 106.338C105.703 105.076 106.272 103.286 106.272 100.967C106.272 98.6474 105.703 96.8774 104.563 95.6567C103.465 94.4361 102.102 93.8257 100.474 93.8257C98.8465 93.8257 97.4834 94.4361 96.3848 95.6567C95.2862 96.8774 94.7369 98.6474 94.7369 100.967C94.7369 103.327 95.2658 105.117 96.3238 106.338C97.3817 107.558 98.7448 108.169 100.413 108.169ZM143.487 107.925V118.117H138.299C129.551 118.117 125.177 113.784 125.177 105.117V93.8257H120.966V83.8772H125.177V75.5766H137.201V83.8772H143.426V93.8257H137.201V105.3C137.201 106.236 137.404 106.907 137.811 107.314C138.259 107.721 138.991 107.925 140.008 107.925H143.487ZM181.688 100.6C181.688 101.536 181.627 102.472 181.505 103.408H158.861C158.984 105.28 159.492 106.684 160.387 107.619C161.323 108.515 162.503 108.962 163.927 108.962C165.921 108.962 167.345 108.067 168.2 106.277H180.956C180.427 108.637 179.389 110.752 177.843 112.624C176.337 114.455 174.425 115.9 172.106 116.958C169.787 118.015 167.223 118.544 164.416 118.544C161.038 118.544 158.027 117.832 155.383 116.408C152.778 114.984 150.724 112.95 149.218 110.305C147.753 107.66 147.021 104.547 147.021 100.967C147.021 97.386 147.753 94.2937 149.218 91.6896C150.683 89.0448 152.717 87.0103 155.322 85.5862C157.966 84.162 160.998 83.45 164.416 83.45C167.793 83.45 170.783 84.1417 173.388 85.5251C175.992 86.9086 178.026 88.9023 179.491 91.5065C180.956 94.0699 181.688 97.1012 181.688 100.6ZM169.481 97.6098C169.481 96.145 168.993 95.0057 168.017 94.1919C167.04 93.3375 165.819 92.9102 164.355 92.9102C162.89 92.9102 161.689 93.3171 160.754 94.1309C159.818 94.904 159.207 96.0636 158.923 97.6098H169.481ZM201.171 118.544C198.078 118.544 195.312 118.036 192.87 117.019C190.47 115.961 188.557 114.537 187.133 112.746C185.75 110.915 184.976 108.86 184.814 106.582H196.41C196.573 107.68 197.082 108.535 197.936 109.145C198.79 109.756 199.848 110.061 201.11 110.061C202.086 110.061 202.859 109.857 203.429 109.45C203.999 109.043 204.283 108.515 204.283 107.864C204.283 107.009 203.816 106.378 202.88 105.971C201.944 105.565 200.398 105.117 198.241 104.629C195.8 104.14 193.765 103.591 192.138 102.981C190.51 102.37 189.086 101.374 187.865 99.9901C186.685 98.6067 186.095 96.735 186.095 94.375C186.095 92.3406 186.645 90.5096 187.743 88.882C188.842 87.2137 190.449 85.8913 192.565 84.9148C194.722 83.9383 197.305 83.45 200.316 83.45C204.792 83.45 208.312 84.5486 210.875 86.7458C213.439 88.943 214.924 91.832 215.331 95.4126H204.528C204.324 94.314 203.836 93.4799 203.063 92.9102C202.33 92.2999 201.334 91.9947 200.072 91.9947C199.096 91.9947 198.343 92.1778 197.814 92.544C197.326 92.9102 197.082 93.4188 197.082 94.0699C197.082 94.8837 197.549 95.5143 198.485 95.9619C199.421 96.3688 200.927 96.796 203.002 97.2436C205.484 97.7726 207.539 98.3626 209.166 99.0136C210.834 99.6646 212.279 100.723 213.5 102.187C214.761 103.611 215.392 105.565 215.392 108.047C215.392 110.04 214.802 111.831 213.622 113.418C212.482 115.004 210.834 116.266 208.678 117.202C206.562 118.097 204.06 118.544 201.171 118.544Z" fill="black"/>
<path d="M116.964 153.456C116.964 155.613 116.455 157.647 115.438 159.56C114.421 161.472 112.793 163.039 110.555 164.259C108.317 165.439 105.449 166.029 101.949 166.029H94.2592V183.241H87.3013V140.822H101.949C105.205 140.822 107.951 141.392 110.189 142.531C112.468 143.63 114.156 145.136 115.255 147.048C116.394 148.96 116.964 151.096 116.964 153.456ZM101.949 160.353C104.594 160.353 106.568 159.763 107.87 158.583C109.172 157.363 109.823 155.654 109.823 153.456C109.823 148.818 107.198 146.499 101.949 146.499H94.2592V160.353H101.949ZM138.187 183.79C135.013 183.79 132.144 183.078 129.581 181.654C127.018 180.189 125.004 178.155 123.539 175.551C122.074 172.906 121.341 169.854 121.341 166.396C121.341 162.978 122.094 159.946 123.6 157.302C125.105 154.657 127.16 152.622 129.764 151.198C132.368 149.774 135.278 149.062 138.492 149.062C141.706 149.062 144.616 149.774 147.22 151.198C149.824 152.622 151.879 154.657 153.384 157.302C154.89 159.946 155.642 162.978 155.642 166.396C155.642 169.814 154.869 172.845 153.323 175.49C151.777 178.134 149.661 180.189 146.976 181.654C144.331 183.078 141.401 183.79 138.187 183.79ZM138.187 177.748C139.977 177.748 141.645 177.321 143.192 176.466C144.778 175.612 146.06 174.33 147.037 172.621C148.013 170.912 148.502 168.837 148.502 166.396C148.502 163.954 148.034 161.899 147.098 160.231C146.162 158.522 144.921 157.241 143.375 156.386C141.829 155.532 140.16 155.104 138.37 155.104C136.58 155.104 134.911 155.532 133.365 156.386C131.86 157.241 130.659 158.522 129.764 160.231C128.869 161.899 128.421 163.954 128.421 166.396C128.421 170.017 129.337 172.825 131.168 174.818C133.04 176.771 135.379 177.748 138.187 177.748ZM169.479 138.076V183.241H162.521V138.076H169.479Z" fill="black"/>
</svg>
